<?xml version="1.0" encoding="utf-8"?>
<!-- Generator: Adobe Illustrator 24.3.0, SVG Export Plug-In . SVG Version: 6.00 Build 0)  -->
<svg version="1.1" id="Capa_1" xmlns="http://www.w3.org/2000/svg" xmlns:xlink="http://www.w3.org/1999/xlink" x="0px" y="0px"
	 viewBox="0 0 1080 1080" style="enable-background:new 0 0 1080 1080;" xml:space="preserve">
<style type="text/css">
	.st0{fill:#2A3884;}
	.st1{fill:#727172;}
	.st2{fill:#8F3292;}
	.st3{fill:#EA2025;}
	.st4{fill:#931B4C;}
	.st5{fill:#35A84A;}
	.st6{fill:#357B3C;}
	.st7{fill:#F59B20;}
</style>
<g>
	<g>
		<path class="st0" d="M94.52,605.98v27.71h20.76v-27.71h13.89v69.32h-13.89v-27.71H94.52v27.71H80.63v-69.32H94.52z"/>
		<path class="st0" d="M196.73,605.98h13.89v69.32h-13.89V605.98z"/>
		<path class="st0" d="M288.12,645.78c-2.08-0.73-4.28-1.85-6.64-3.4c-2.35-1.54-4.44-3.59-6.29-6.14
			c-1.85-2.55-2.78-5.71-2.78-9.49c0-5.71,2.05-10.58,6.1-14.67c4.05-4.05,8.95-6.1,14.71-6.1c5.71,0,10.58,2.05,14.67,6.1
			c4.05,4.05,6.1,8.95,6.1,14.67h-13.86c0-1.89-0.69-3.51-2.05-4.86c-1.35-1.35-2.97-2.05-4.86-2.05c-1.93,0-3.55,0.69-4.9,2.05
			c-1.35,1.35-2.01,2.97-2.01,4.86c0,2.47,1,4.32,2.97,5.6c2.01,1.27,3.51,2.05,4.55,2.35c0.5,0.15,1.81,0.58,3.98,1.2
			c2.16,0.62,4.44,1.66,6.83,3.13c2.39,1.47,4.55,3.44,6.48,5.91s2.89,5.64,2.89,9.53c0,5.71-2.05,10.61-6.1,14.71
			c-4.05,4.05-8.95,6.1-14.67,6.1s-10.61-2.05-14.71-6.1c-4.05-4.05-6.1-8.95-6.1-14.71h13.89c0,1.93,0.66,3.55,2.01,4.9
			c1.35,1.35,2.97,2.01,4.9,2.01c1.89,0,3.51-0.66,4.86-2.01c1.35-1.35,2.05-2.97,2.05-4.9c0-2.93-1.16-4.82-3.51-5.67
			c-2.35-0.85-3.94-1.47-4.75-1.78C291.44,646.9,290.21,646.47,288.12,645.78z"/>
		<path class="st0" d="M405.3,605.98h17.33v13.86H405.3v55.46H391.4v-55.46h-17.29v-13.86h17.33H405.3z"/>
		<path class="st0" d="M534.56,616.17c6.79,6.79,10.19,14.94,10.19,24.47s-3.4,17.72-10.19,24.47
			c-6.79,6.79-14.94,10.15-24.47,10.15c-9.53,0-17.72-3.4-24.47-10.15c-6.75-6.75-10.15-14.94-10.15-24.47s3.4-17.68,10.15-24.47
			c6.79-6.79,14.94-10.19,24.47-10.19C519.58,605.98,527.77,609.38,534.56,616.17z M495.38,625.98c-4.05,4.09-6.1,8.99-6.1,14.67
			c0,5.75,2.05,10.61,6.1,14.67c4.05,4.05,8.95,6.1,14.67,6.1c5.71,0,10.61-2.05,14.67-6.1c4.09-4.05,6.14-8.95,6.14-14.67
			s-2.05-10.61-6.14-14.67c-4.09-4.09-8.99-6.14-14.67-6.14C504.34,619.84,499.47,621.89,495.38,625.98z"/>
		<path class="st0" d="M607.35,654.5v-24.24v-24.24h13.89h10.34c6.68,0,12.39,2.39,17.14,7.14c4.75,4.75,7.14,10.46,7.14,17.1
			c0,5.17-1.47,9.8-4.4,13.89c-2.93,4.13-6.68,7.02-11.23,8.76l15.63,22.39h-16.94l-17.72-25.36v25.36h-13.89v-20.8H607.35z
			 M631.59,640.64c2.86,0,5.33-1,7.37-3.05s3.05-4.48,3.05-7.33c0-2.82-1-5.29-3.05-7.33s-4.48-3.09-7.37-3.09h-10.34v10.42v10.42
			h10.34V640.64z"/>
		<path class="st0" d="M716.65,605.98h13.89v69.32h-13.89V605.98z"/>
		<path class="st0" d="M518.12,585.14l-8.65,13.05c-0.77,1.08-0.62,2.55,0.42,3.4l1.27,1.04c1.12,0.93,2.78,0.89,3.86-0.08l9.53-9.8
			L518.12,585.14z"/>
		<path class="st0" d="M840.39,608.72c4.21,1.81,7.87,4.28,11.08,7.41l-9.8,9.8c-4.13-4.05-9.03-6.1-14.71-6.1
			c-5.71,0-10.61,2.05-14.67,6.14c-4.05,4.09-6.1,8.99-6.1,14.67c0,5.75,2.05,10.61,6.1,14.67c4.05,4.05,8.95,6.1,14.67,6.1
			c5.75,0,10.65-2.05,14.71-6.1l9.8,9.8c-3.16,3.16-6.87,5.64-11.08,7.45s-8.68,2.74-13.43,2.74c-9.53,0-17.72-3.4-24.47-10.15
			c-6.79-6.79-10.15-14.94-10.15-24.47s3.4-17.68,10.15-24.47c6.79-6.79,14.94-10.19,24.47-10.19
			C831.75,605.98,836.23,606.91,840.39,608.72z"/>
		<path class="st0" d="M965.95,616.17c6.79,6.79,10.19,14.94,10.19,24.47s-3.4,17.72-10.19,24.47
			c-6.79,6.79-14.94,10.15-24.47,10.15c-9.53,0-17.72-3.4-24.47-10.15c-6.79-6.79-10.15-14.94-10.15-24.47s3.4-17.68,10.15-24.47
			c6.79-6.79,14.94-10.19,24.47-10.19C950.97,605.98,959.16,609.38,965.95,616.17z M926.77,625.98c-4.05,4.09-6.1,8.99-6.1,14.67
			c0,5.75,2.05,10.61,6.1,14.67s8.95,6.1,14.67,6.1c5.71,0,10.61-2.05,14.67-6.1c4.09-4.05,6.14-8.95,6.14-14.67
			s-2.05-10.61-6.14-14.67c-4.09-4.09-8.99-6.14-14.67-6.14C935.73,619.84,930.86,621.89,926.77,625.98z"/>
	</g>
	<g>
		<g>
			<path class="st1" d="M165.08,727.6c2.62,1.12,4.94,2.66,6.91,4.63l-6.14,6.14c-2.59-2.55-5.64-3.82-9.19-3.82
				c-3.59,0-6.64,1.27-9.19,3.82c-2.55,2.55-3.78,5.6-3.78,9.19c0,3.59,1.27,6.64,3.78,9.19c2.51,2.55,5.6,3.78,9.19,3.78
				c3.59,0,6.64-1.27,9.19-3.82l6.14,6.14c-1.97,1.97-4.28,3.51-6.91,4.67c-2.62,1.12-5.4,1.7-8.38,1.7
				c-5.94,0-11.08-2.12-15.28-6.37c-4.21-4.25-6.37-9.34-6.37-15.28c0-5.94,2.12-11.04,6.37-15.28c4.25-4.25,9.34-6.37,15.28-6.37
				C159.63,725.86,162.45,726.44,165.08,727.6z"/>
			<path class="st1" d="M233.97,732.23c4.25,4.25,6.37,9.34,6.37,15.28c0,5.94-2.12,11.08-6.37,15.28
				c-4.25,4.25-9.34,6.37-15.28,6.37c-5.94,0-11.08-2.12-15.28-6.37s-6.37-9.34-6.37-15.28c0-5.94,2.12-11.04,6.37-15.28
				c4.25-4.25,9.34-6.37,15.28-6.37C224.63,725.86,229.72,727.99,233.97,732.23z M209.5,738.37c-2.55,2.55-3.78,5.6-3.78,9.19
				c0,3.59,1.27,6.64,3.78,9.19s5.6,3.78,9.19,3.78c3.55,0,6.6-1.27,9.19-3.78c2.59-2.51,3.82-5.6,3.82-9.19
				c0-3.55-1.27-6.6-3.82-9.19c-2.55-2.59-5.6-3.82-9.19-3.82C215.1,734.51,212.05,735.78,209.5,738.37z"/>
			<path class="st1" d="M273.49,725.86v34.62h17.29v8.68h-25.98v-43.3H273.49z"/>
			<path class="st1" d="M353.54,732.23c4.25,4.25,6.37,9.34,6.37,15.28c0,5.94-2.12,11.08-6.37,15.28
				c-4.25,4.25-9.34,6.37-15.28,6.37c-5.94,0-11.08-2.12-15.28-6.37s-6.37-9.34-6.37-15.28c0-5.94,2.12-11.04,6.37-15.28
				c4.25-4.25,9.34-6.37,15.28-6.37S349.3,727.99,353.54,732.23z M329.11,738.37c-2.55,2.55-3.78,5.6-3.78,9.19
				c0,3.59,1.27,6.64,3.78,9.19s5.6,3.78,9.19,3.78c3.55,0,6.64-1.27,9.19-3.78s3.82-5.6,3.82-9.19c0-3.55-1.27-6.6-3.82-9.19
				s-5.6-3.82-9.19-3.82C334.71,734.51,331.62,735.78,329.11,738.37z"/>
			<path class="st1" d="M405.53,754.04l21.11-28.14v43.3h-8.68v-17.33l-12.43,16.63l-12.43-16.63v17.33h-8.68v-43.3L405.53,754.04z"
				/>
			<path class="st1" d="M480.25,745.59c1.74,2.51,2.59,5.33,2.59,8.45c0,4.17-1.47,7.72-4.44,10.69c-2.97,2.97-6.56,4.44-10.73,4.44
				h-15.13v-15.13v-6.48v-8.68v-2.16V725.9h10.81c2.97,0,5.52,1.04,7.64,3.16s3.16,4.67,3.16,7.64c0,1.16-0.19,2.28-0.54,3.4
				C476.32,741.26,478.52,743.08,480.25,745.59z M463.35,738.83c1.47,0,2.16-0.73,2.16-2.16c0-1.47-0.73-2.16-2.16-2.16h-2.16v2.16
				v2.16H463.35z M463.35,747.52h-2.16V754v6.48h6.48c1.78,0,3.32-0.62,4.59-1.89s1.89-2.78,1.89-4.59s-0.62-3.32-1.89-4.59
				c-1.27-1.27-2.82-1.89-4.59-1.89H463.35z"/>
			<path class="st1" d="M508.08,725.86h8.68v43.3h-8.68V725.86z"/>
			<path class="st1" d="M554.71,762.99l-2.78,6.18h-1.47h-0.35h-5.6h-1.81l18.53-41.26l0.93-2.01l0.93,2.05l18.56,41.26h-1.81h-5.6
				h-0.39h-1.47l-2.78-6.21l-0.12-0.31h-14.63L554.71,762.99z M565.55,754.04l-3.4-7.56l-3.4,7.56H565.55z"/>
			<path class="st1" d="M640.7,756.16v-15.13V725.9h8.68h6.48c4.17,0,7.76,1.51,10.73,4.44c2.97,2.97,4.48,6.52,4.48,10.69
				s-1.47,7.72-4.48,10.69c-2.97,2.97-6.56,4.44-10.73,4.44h-6.48v13.01h-8.68V756.16z M655.87,747.52c1.78,0,3.32-0.62,4.59-1.89
				c1.27-1.27,1.89-2.82,1.89-4.59c0-1.78-0.66-3.28-1.89-4.59c-1.27-1.27-2.82-1.93-4.59-1.93h-6.48v6.48v6.48h6.48V747.52z"/>
			<path class="st1" d="M730.9,725.86v17.33v8.65c0,4.79-1.7,8.88-5.09,12.24c-3.4,3.4-7.49,5.06-12.23,5.06
				c-4.79,0-8.88-1.7-12.23-5.06c-3.4-3.4-5.09-7.45-5.09-12.24v-8.65v-17.33h8.68v17.33v7.76v0.89c0,2.39,0.85,4.4,2.55,6.1
				s3.74,2.55,6.1,2.55s4.4-0.85,6.1-2.55s2.55-3.74,2.55-6.1v-0.89v-7.76v-17.33H730.9z"/>
			<path class="st1" d="M782.89,725.86v8.65H765.6v8.68h12.97v8.65H765.6v8.65h17.29v8.68H765.6h-8.68v-17.33v-8.65v-17.33H782.89z"
				/>
			<path class="st1" d="M832.71,732.23c4.25,4.25,6.37,9.34,6.37,15.28c0,5.94-2.12,11.08-6.37,15.28
				c-4.25,4.25-9.34,6.37-15.28,6.37h-8.68v-43.3h8.68C823.37,725.86,828.47,727.99,832.71,732.23z M826.58,756.7
				c2.55-2.55,3.82-5.6,3.82-9.19c0-3.55-1.27-6.6-3.82-9.19s-5.6-3.82-9.15-3.82v25.98C820.98,760.48,824.03,759.21,826.58,756.7z"
				/>
			<path class="st1" d="M889.95,725.86v8.65h-17.29v8.68h12.97v8.65h-12.97v8.65h17.29v8.68h-17.29h-8.68v-17.33v-8.65v-17.33
				H889.95z"/>
		</g>
	</g>
	<g>
		<g>
			<path class="st2" d="M821.37,536.66c-5.17,0-30.57-0.89-53.38-16.52c20.03,28.79,50.06,47.13,83.52,47.13c0,0,0,0,0.04,0
				c32.81,0,53.65-18.49,65.34-33.96c15.05-19.92,20.49-41.57,20.49-51.26v-45.74c0.04-0.93,0.31-5.25,0.77-9.57h-26.01
				c-8.57,0-36.59,4.59-36.59,63.45h-0.31c-1,10.73-5.17,20.34-12.35,28.1c-12.12,13.08-29.56,18.06-40.8,18.33
				C822.06,536.66,821.79,536.66,821.37,536.66z M920.37,436.24c4.44,0,8.03,3.59,8.03,8.03c0,4.44-3.59,8.03-8.03,8.03
				s-8.03-3.59-8.03-8.03C912.34,439.83,915.93,436.24,920.37,436.24z"/>
			<path class="st2" d="M835.26,445.89h-92.55c0.39,5.79,1.04,11.46,2.05,16.98h61.06c3.2,0,5.79,2.59,5.79,5.79
				c0,3.2-2.59,5.79-5.79,5.79h-58.32c2.08,5.71,4.59,10.77,7.41,15.25h50.91c3.2,0,5.79,2.59,5.79,5.79s-2.59,5.79-5.79,5.79
				h-41.88c23.23,24.2,55.93,23.85,58.01,23.81c9.69-0.23,23.51-4.86,32.58-14.63c6.87-7.41,10.04-16.71,9.49-27.63
				C862.16,447.12,838,445.89,835.26,445.89z"/>
			<path class="st2" d="M920.67,444.27c0-0.19-0.15-0.31-0.31-0.31c-0.19,0-0.31,0.15-0.31,0.31
				C920.06,444.61,920.67,444.61,920.67,444.27z"/>
			<path class="st2" d="M868.3,310.8c-70.79,0-128.83,54.3-134.89,123.51H835.3l0,0c0.42,0,21.58,0.27,33.12,20.49
				c10.58-37.28,37.4-39.64,43.85-39.64h34.66c-0.19-0.08-0.42-0.15-0.62-0.31c-2.97-2.12-29.02-21-30.22-35.12
				c-0.58-6.64,3.24-12.16,9.76-14.09c6.64-1.93,15.94,0.19,22.69,8.65c6.79-8.49,16.06-10.61,22.69-8.65
				c6.48,1.89,10.31,7.41,9.76,14.09c-1.2,14.13-27.25,33.04-30.22,35.12c-0.19,0.12-0.39,0.19-0.62,0.31h2.24l-1.78,7.18
				c-0.73,2.89-1.35,10.31-1.58,14.28v45.43c0,13.47-7.14,37.48-22.85,58.24c-13.28,17.6-37.01,38.56-74.57,38.56h-0.04
				c-5.98,0-11.89-0.54-17.64-1.58c11,2.89,22.54,4.44,34.43,4.44c74.8,0,135.47-60.63,135.47-135.47S943.1,310.8,868.3,310.8z"/>
			<path class="st2" d="M973.24,379.08c0.35-4.05-2.51-5.48-4.25-6.02c-5.09-1.51-12.62,1.51-17.14,10.11
				c-1.35,2.55-5.52,2.55-6.83,0c-3.78-7.22-9.65-10.46-14.47-10.46c-0.93,0-1.81,0.12-2.66,0.35c-1.74,0.5-4.59,1.97-4.25,6.02
				c0.66,7.41,14.71,20.34,24.78,27.87C958.54,399.38,972.63,386.49,973.24,379.08z"/>
		</g>
		<path class="st0" d="M365.27,446.89c0-26.01,7.29-50.33,19.99-71.02l-19.99-65.07h-99.81l-13.32,44.12
			c11.31,16.48,19.03,39.1,19.03,70.21c0,52.07-36.43,82.13-69.13,95.6l-18.8,62.26h87.92l6.21-18.91h73.45l5.64,18.91h92.32
			l-3.74-12.2C398,549.36,365.27,501.97,365.27,446.89z M300.43,494.17l15.59-47.28l14.05,47.28H300.43z"/>
		<path class="st3" d="M586.01,340.36c-23.23-18.49-52.65-29.56-84.64-29.56c-49.13,0-92.21,26.05-116.14,65.07l59.82,194.91
			c17.18,7.8,36.2,12.2,56.27,12.2c69.86,0,127.41-52.68,135.16-120.5h-90.59c-6.45,18.41-23.97,31.65-44.58,31.65
			c-26.09,0-47.28-21.15-47.28-47.28c0-26.13,21.15-47.28,47.28-47.28c20.96,0,38.71,13.66,44.89,32.54h90.39
			c-1.04-9.73-3.16-19.14-6.14-28.14h-44.46V340.36z"/>
		<path class="st4" d="M365.27,446.89c0,55.08,32.73,102.47,79.82,123.89l-59.82-194.91C372.57,396.56,365.27,420.88,365.27,446.89z
			"/>
		<path class="st5" d="M782.54,341.6v-30.8H586.01v29.56c20.46,16.29,36.09,38.33,44.5,63.65h9.57v178.97h89.7V404.01h10.07
			C747.96,379.35,762.93,357.77,782.54,341.6z"/>
		<path class="st4" d="M782.54,341.6c-19.61,16.13-34.58,37.71-42.69,62.41h42.69V341.6z"/>
		<path class="st6" d="M586.01,340.36v63.65h44.5C622.09,378.69,606.46,356.65,586.01,340.36z"/>
		<path class="st7" d="M161.68,310.8H76.15v272.18h88.62v-53.65c9.49,0,23-2.74,37.28-8.61l50.1-165.81
			C220.77,309.22,161.68,310.8,161.68,310.8z M164.77,452.6v-66.81c0,0,34.31-0.23,34.31,35.39
			C199.04,449.09,164.77,452.6,164.77,452.6z"/>
		<path class="st3" d="M271.18,425.12c0-31.11-7.72-53.73-19.03-70.21l-50.1,165.81C234.7,507.25,271.18,477.19,271.18,425.12z"/>
	</g>
	<rect x="80.67" y="694.02" class="st0" width="895.47" height="8.8"/>
</g>
</svg>
