<svg width="271" height="272" viewBox="0 0 271 272" fill="none" xmlns="http://www.w3.org/2000/svg">
<path d="M88.37 226.66C83.2 226.66 57.8 225.77 34.99 210.14C55.02 238.93 85.05 257.27 118.51 257.27C118.51 257.27 118.51 257.27 118.55 257.27C151.36 257.27 172.2 238.78 183.89 223.31C198.94 203.39 204.38 181.74 204.38 172.05V126.31C204.42 125.38 204.69 121.06 205.15 116.74H179.14C170.57 116.74 142.55 121.33 142.55 180.19H142.24C141.24 190.92 137.07 200.53 129.89 208.29C117.77 221.37 100.33 226.35 89.09 226.62C89.06 226.66 88.79 226.66 88.37 226.66ZM187.37 126.24C191.81 126.24 195.4 129.83 195.4 134.27C195.4 138.71 191.81 142.3 187.37 142.3C182.93 142.3 179.34 138.71 179.34 134.27C179.34 129.83 182.93 126.24 187.37 126.24Z" fill="#8F3292"/>
<path d="M102.26 135.89H9.71002C10.1 141.68 10.75 147.35 11.76 152.87H72.82C76.02 152.87 78.61 155.46 78.61 158.66C78.61 161.86 76.02 164.45 72.82 164.45H14.5C16.58 170.16 19.09 175.22 21.91 179.7H72.82C76.02 179.7 78.61 182.29 78.61 185.49C78.61 188.69 76.02 191.28 72.82 191.28H30.94C54.17 215.48 86.87 215.13 88.95 215.09C98.64 214.86 112.46 210.23 121.53 200.46C128.4 193.05 131.57 183.75 131.02 172.83C129.16 137.12 105 135.89 102.26 135.89Z" fill="#8F3292"/>
<path d="M187.67 134.27C187.67 134.08 187.52 133.96 187.36 133.96C187.17 133.96 187.05 134.11 187.05 134.27C187.06 134.61 187.67 134.61 187.67 134.27Z" fill="#8F3292"/>
<path d="M135.3 0.799988C64.51 0.799988 6.46997 55.1 0.409973 124.31H102.3C102.72 124.31 123.88 124.58 135.42 144.8C146 107.52 172.82 105.16 179.27 105.16H213.93C213.74 105.08 213.51 105.01 213.31 104.85C210.34 102.73 184.29 83.85 183.09 69.73C182.51 63.09 186.33 57.57 192.85 55.64C199.49 53.71 208.79 55.83 215.54 64.29C222.33 55.8 231.6 53.68 238.23 55.64C244.71 57.53 248.54 63.05 247.99 69.73C246.79 83.86 220.74 102.77 217.77 104.85C217.58 104.97 217.38 105.04 217.15 105.16H219.39L217.61 112.34C216.88 115.23 216.26 122.65 216.03 126.62V172.05C216.03 185.52 208.89 209.53 193.18 230.29C179.9 247.89 156.17 268.85 118.61 268.85H118.57C112.59 268.85 106.68 268.31 100.93 267.27C111.93 270.16 123.47 271.71 135.36 271.71C210.16 271.71 270.83 211.08 270.83 136.24C270.83 61.4 210.1 0.799988 135.3 0.799988Z" fill="#8F3292"/>
<path d="M240.24 69.08C240.59 65.03 237.73 63.6 235.99 63.06C230.9 61.55 223.37 64.57 218.85 73.17C217.5 75.72 213.33 75.72 212.02 73.17C208.24 65.95 202.37 62.71 197.55 62.71C196.62 62.71 195.74 62.83 194.89 63.06C193.15 63.56 190.3 65.03 190.64 69.08C191.3 76.49 205.35 89.42 215.42 96.95C225.54 89.38 239.63 76.49 240.24 69.08Z" fill="#8F3292"/>
</svg>
