<svg fill="none" height="272" viewBox="0 0 271 272" width="271" xmlns="http://www.w3.org/2000/svg"><g fill="#8f3292"><path d="m88.37 226.66c-5.17 0-30.57-.89-53.38-16.52 20.03 28.79 50.06 47.13 83.52 47.13h.04c32.81 0 53.65-18.49 65.34-33.96 15.05-19.92 20.49-41.57 20.49-51.26v-45.74c.04-.93.31-5.25.77-9.57h-26.01c-8.57 0-36.59 4.59-36.59 63.45h-.31c-1 10.73-5.17 20.34-12.35 28.1-12.12 13.08-29.56 18.06-40.8 18.33-.03.04-.3.04-.72.04zm99-100.42c4.44 0 8.03 3.59 8.03 8.03s-3.59 8.03-8.03 8.03-8.03-3.59-8.03-8.03 3.59-8.03 8.03-8.03z"/><path d="m102.26 135.89h-92.54998c.38998 5.79 1.03998 11.46 2.04998 16.98h61.06c3.2 0 5.79 2.59 5.79 5.79s-2.59 5.79-5.79 5.79h-58.32c2.08 5.71 4.59 10.77 7.41 15.25h50.91c3.2 0 5.79 2.59 5.79 5.79s-2.59 5.79-5.79 5.79h-41.88c23.23 24.2 55.93 23.85 58.01 23.81 9.69-.23 23.51-4.86 32.58-14.63 6.87-7.41 10.04-16.71 9.49-27.63-1.86-35.71-26.02-36.94-28.76-36.94z"/><path d="m187.67 134.27c0-.19-.15-.31-.31-.31-.19 0-.31.15-.31.31.01.34.62.34.62 0z"/><path d="m135.3.799988c-70.79 0-128.83003 54.300012-134.890027 123.510012h101.890027c.42 0 21.58.27 33.12 20.49 10.58-37.28 37.4-39.64 43.85-39.64h34.66c-.19-.08-.42-.15-.62-.31-2.97-2.12-29.02-21-30.22-35.12-.58-6.64 3.24-12.16 9.76-14.09 6.64-1.93 15.94.19 22.69 8.65 6.79-8.49 16.06-10.61 22.69-8.65 6.48 1.89 10.31 7.41 9.76 14.09-1.2 14.13-27.25 33.04-30.22 35.12-.19.12-.39.19-.62.31h2.24l-1.78 7.18c-.73 2.89-1.35 10.31-1.58 14.28v45.43c0 13.47-7.14 37.48-22.85 58.24-13.28 17.6-37.01 38.56-74.57 38.56h-.04c-5.98 0-11.89-.54-17.64-1.58 11 2.89 22.54 4.44 34.43 4.44 74.8 0 135.47-60.63 135.47-135.47s-60.73-135.440012-135.53-135.440012z"/><path d="m240.24 69.08c.35-4.05-2.51-5.48-4.25-6.02-5.09-1.51-12.62 1.51-17.14 10.11-1.35 2.55-5.52 2.55-6.83 0-3.78-7.22-9.65-10.46-14.47-10.46-.93 0-1.81.12-2.66.35-1.74.5-4.59 1.97-4.25 6.02.66 7.41 14.71 20.34 24.78 27.87 10.12-7.57 24.21-20.46 24.82-27.87z"/></g></svg>